STARTFONT 2.1
FONT -sun-arioso-bold-r-normal--20-200-75-75-p-108-adobe-fontspecific
SIZE 20 75 75
FONTBOUNDINGBOX 27 24 -4 -5

STARTPROPERTIES 28
FOUNDRY "sun"
FAMILY_NAME "arioso"
WEIGHT_NAME "bold"
SLANT "r"
SETWIDTH_NAME "normal"
ADD_STYLE_NAME ""
PIXEL_SIZE 21
POINT_SIZE 200
RESOLUTION_X 75
RESOLUTION_Y 75
SPACING "p"
AVERAGE_WIDTH 108
CHARSET_REGISTRY "adobe"
CHARSET_ENCODING "fontspecific"
COPYRIGHT "© 1999 Sun Microsystems, Inc."
RAW_PIXELSIZE 1000
RAW_POINTSIZE 964
RAW_ASCENT 906
RAW_DESCENT 247
RAW_AVERAGE_WIDTH 5188
FACE_NAME "AriosoBold"
_XMBDFED_INFO "Edited with xmbdfed 2.4."
WEIGHT 10
X_HEIGHT -2
QUAD_WIDTH 11
DEFAULT_CHAR 4
FONT_DESCENT 5
FONT_ASCENT 19
ENDPROPERTIES

CHARS 195

STARTCHAR char32
ENCODING 32
SWIDTH 21 0
DWIDTH 5 0
BBX 0 0 0 0
BITMAP
ENDCHAR

STARTCHAR char33
ENCODING 33
SWIDTH 30 0
DWIDTH 7 0
BBX 6 14 2 0
BITMAP
1C
18
18
10
10
10
20
20
20
20
00
C0
C0
C0
ENDCHAR

STARTCHAR char34
ENCODING 34
SWIDTH 34 0
DWIDTH 8 0
BBX 7 6 2 9
BITMAP
22
76
36
24
4C
88
ENDCHAR

STARTCHAR char35
ENCODING 35
SWIDTH 8 0
DWIDTH 12 0
BBX 10 16 1 0
BITMAP
1980
1980
1100
1100
FF80
FFC0
3300
3300
3300
2200
FF80
FF80
2200
6600
6600
6600
ENDCHAR

STARTCHAR char36
ENCODING 36
SWIDTH 8 0
DWIDTH 12 0
BBX 11 18 0 -2
BITMAP
00C0
03C0
0CE0
1120
3120
3100
3A00
1E00
0F00
0780
05C0
08C0
88C0
8880
D100
7E00
1000
2000
ENDCHAR

STARTCHAR char37
ENCODING 37
SWIDTH 25 0
DWIDTH 16 0
BBX 15 13 0 0
BITMAP
0808
7410
4420
CC40
CC40
889C
9936
7226
0466
0866
1064
306C
2038
ENDCHAR

STARTCHAR char38
ENCODING 38
SWIDTH 3 0
DWIDTH 11 0
BBX 10 13 0 0
BITMAP
0300
0580
0D80
0D00
0E00
0C00
1640
2680
6380
C380
C180
E7C0
7900
ENDCHAR

STARTCHAR char39
ENCODING 39
SWIDTH 17 0
DWIDTH 4 0
BBX 3 6 2 9
BITMAP
20
20
40
C0
E0
C0
ENDCHAR

STARTCHAR char40
ENCODING 40
SWIDTH 34 0
DWIDTH 8 0
BBX 7 19 1 -4
BITMAP
02
04
0C
18
18
30
70
60
E0
E0
C0
C0
C0
C0
80
80
80
80
80
ENDCHAR

STARTCHAR char41
ENCODING 41
SWIDTH 34 0
DWIDTH 8 0
BBX 8 19 -2 -4
BITMAP
01
01
02
03
03
03
03
07
06
06
0E
0E
0C
18
18
30
20
40
80
ENDCHAR

STARTCHAR char42
ENCODING 42
SWIDTH 34 0
DWIDTH 8 0
BBX 7 7 2 8
BITMAP
30
30
F4
7C
7C
F4
30
ENDCHAR

STARTCHAR char43
ENCODING 43
SWIDTH 12 0
DWIDTH 13 0
BBX 13 12 1 0
BITMAP
0600
0600
0600
0600
0600
FFF8
0600
0600
0600
0600
0600
0600
ENDCHAR

STARTCHAR char44
ENCODING 44
SWIDTH 21 0
DWIDTH 5 0
BBX 4 6 0 -3
BITMAP
20
F0
30
60
40
80
ENDCHAR

STARTCHAR char45
ENCODING 45
SWIDTH 30 0
DWIDTH 7 0
BBX 7 1 0 4
BITMAP
FC
ENDCHAR

STARTCHAR char46
ENCODING 46
SWIDTH 21 0
DWIDTH 5 0
BBX 2 3 1 0
BITMAP
C0
C0
C0
ENDCHAR

STARTCHAR char47
ENCODING 47
SWIDTH 43 0
DWIDTH 10 0
BBX 10 15 0 0
BITMAP
0040
0080
0180
0100
0200
0200
0400
0C00
0800
1000
3000
2000
4000
4000
8000
ENDCHAR

STARTCHAR char48
ENCODING 48
SWIDTH 3 0
DWIDTH 11 0
BBX 9 13 1 0
BITMAP
0E00
1980
3080
6080
6180
E180
C180
C380
C300
8300
8600
8400
7800
ENDCHAR

STARTCHAR char49
ENCODING 49
SWIDTH 3 0
DWIDTH 11 0
BBX 7 13 3 0
BITMAP
02
0C
1C
7C
98
18
38
30
30
70
60
E0
C0
ENDCHAR

STARTCHAR char50
ENCODING 50
SWIDTH 3 0
DWIDTH 11 0
BBX 11 13 -1 0
BITMAP
0380
0C40
0860
1060
10E0
11C0
0180
0300
0C00
1000
2000
7F80
4F00
ENDCHAR

STARTCHAR char51
ENCODING 51
SWIDTH 3 0
DWIDTH 11 0
BBX 10 13 0 0
BITMAP
1F00
10C0
00C0
01C0
0380
1E00
1300
0380
0380
0380
8300
8600
7800
ENDCHAR

STARTCHAR char52
ENCODING 52
SWIDTH 3 0
DWIDTH 11 0
BBX 12 13 -1 0
BITMAP
0010
0020
0060
00E0
03C0
04C0
09C0
1180
1180
7FC0
0300
0700
0600
ENDCHAR

STARTCHAR char53
ENCODING 53
SWIDTH 3 0
DWIDTH 11 0
BBX 10 13 0 0
BITMAP
0FC0
0800
0800
1000
1000
1F00
0180
0180
0180
0300
0300
8600
7800
ENDCHAR

STARTCHAR char54
ENCODING 54
SWIDTH 3 0
DWIDTH 11 0
BBX 10 14 1 0
BITMAP
0040
0180
0300
0E00
1C00
3800
7F00
6180
E380
C380
C300
C700
4600
3800
ENDCHAR

STARTCHAR char55
ENCODING 55
SWIDTH 3 0
DWIDTH 11 0
BBX 10 13 1 0
BITMAP
3FC0
7E80
4080
0100
0300
0600
0600
0C00
1C00
1800
3800
7000
4000
ENDCHAR

STARTCHAR char56
ENCODING 56
SWIDTH 3 0
DWIDTH 11 0
BBX 11 13 0 0
BITMAP
0780
0860
1860
1860
1CC0
0F80
0F00
7700
C380
C180
C180
C100
3E00
ENDCHAR

STARTCHAR char57
ENCODING 57
SWIDTH 3 0
DWIDTH 11 0
BBX 10 14 0 -1
BITMAP
0F00
1880
38C0
70C0
70C0
61C0
6180
2780
1B00
0600
0C00
1000
6000
8000
ENDCHAR

STARTCHAR char58
ENCODING 58
SWIDTH 21 0
DWIDTH 5 0
BBX 4 8 1 0
BITMAP
30
30
30
00
00
C0
C0
C0
ENDCHAR

STARTCHAR char59
ENCODING 59
SWIDTH 21 0
DWIDTH 5 0
BBX 5 11 1 -3
BITMAP
30
38
30
00
00
40
E0
60
40
80
80
ENDCHAR

STARTCHAR char60
ENCODING 60
SWIDTH 12 0
DWIDTH 13 0
BBX 11 11 1 0
BITMAP
0020
00E0
0380
1E00
7000
C000
E000
3C00
0700
01C0
0060
ENDCHAR

STARTCHAR char61
ENCODING 61
SWIDTH 12 0
DWIDTH 13 0
BBX 14 4 0 4
BITMAP
FFFC
0000
0000
FFFC
ENDCHAR

STARTCHAR char62
ENCODING 62
SWIDTH 12 0
DWIDTH 13 0
BBX 11 11 1 0
BITMAP
8000
E000
3800
0E00
0380
00E0
01C0
0700
1C00
7000
C000
ENDCHAR

STARTCHAR char63
ENCODING 63
SWIDTH 38 0
DWIDTH 9 0
BBX 7 14 2 0
BITMAP
1C
62
46
4E
5C
38
70
60
C0
50
70
C0
C0
C0
ENDCHAR

STARTCHAR char64
ENCODING 64
SWIDTH 3 0
DWIDTH 21 0
BBX 15 15 3 0
BITMAP
07E0
1838
300C
6394
6676
CC66
D826
D826
D866
D844
4DC8
6770
300C
1818
07E0
ENDCHAR

STARTCHAR char65
ENCODING 65
SWIDTH 38 0
DWIDTH 19 0
BBX 20 15 -1 0
BITMAP
000060
0001E0
000160
000260
0002E0
0004C0
0009C0
007FE0
1F8980
601380
601300
C02700
C04700
C18600
7E07C0
ENDCHAR

STARTCHAR char66
ENCODING 66
SWIDTH 25 0
DWIDTH 16 0
BBX 16 15 -1 0
BITMAP
01F8
0616
1873
3063
6063
C0E6
C0CC
C0D8
C1C4
4186
4186
0306
030E
0C1C
2FF0
ENDCHAR

STARTCHAR char67
ENCODING 67
SWIDTH 12 0
DWIDTH 13 0
BBX 13 15 0 0
BITMAP
03E0
0E10
1C18
3818
7198
7218
E430
E860
D0E0
F0C0
F380
CE00
4000
6038
1FC0
ENDCHAR

STARTCHAR char68
ENCODING 68
SWIDTH 33 0
DWIDTH 18 0
BBX 19 15 -1 0
BITMAP
00FE00
030980
0C08C0
181040
303060
607060
406060
C0E0E0
C0E0E0
C0C1C0
41C1C0
01C380
018700
031E00
07F000
ENDCHAR

STARTCHAR char69
ENCODING 69
SWIDTH 12 0
DWIDTH 13 0
BBX 13 15 0 0
BITMAP
01C0
03B0
0730
0730
0660
0680
0400
0C00
3000
6010
E018
C018
C030
C040
3F80
ENDCHAR

STARTCHAR char70
ENCODING 70
SWIDTH 42 0
DWIDTH 20 0
BBX 21 19 -1 -4
BITMAP
00FE00
03FFF8
0C07F8
100080
200080
400100
400300
C00300
C00700
C03FF0
C01E00
C01E00
403C00
403C00
005C00
00D800
009800
01B800
01E000
ENDCHAR

STARTCHAR char71
ENCODING 71
SWIDTH 33 0
DWIDTH 18 0
BBX 19 19 -1 -4
BITMAP
001F00
006180
018180
030180
070100
0E0200
0C0C00
0C1300
1C6300
1D8700
1E0600
780600
1C0E00
1C7C60
0F8B80
000C00
00F000
032000
03C000
ENDCHAR

STARTCHAR char72
ENCODING 72
SWIDTH 38 0
DWIDTH 19 0
BBX 20 15 0 0
BITMAP
0F8060
3FF1B0
402320
8066C0
80E700
00EC00
00FC40
01D830
039830
0D9830
13B020
633060
C630C0
CC3100
F81E00
ENDCHAR

STARTCHAR char73
ENCODING 73
SWIDTH 12 0
DWIDTH 13 0
BBX 15 15 -1 0
BITMAP
03F0
0FFE
3004
200C
200C
001C
0018
0038
0038
1FB8
6070
C06C
C0E0
41C0
3F00
ENDCHAR

STARTCHAR char74
ENCODING 74
SWIDTH 12 0
DWIDTH 13 0
BBX 14 19 0 -4
BITMAP
00FC
0708
1818
3018
6030
C070
C060
C060
C0E0
C0C0
C0F8
81C0
8780
1B80
2300
4600
C400
D800
6000
ENDCHAR

STARTCHAR char75
ENCODING 75
SWIDTH 42 0
DWIDTH 20 0
BBX 21 15 -1 0
BITMAP
01F808
07FE38
080630
100660
000EE0
000CC0
001D80
001E00
001800
001800
003C00
003E00
006700
C0C380
3F01F8
ENDCHAR

STARTCHAR char76
ENCODING 76
SWIDTH 25 0
DWIDTH 16 0
BBX 17 15 -1 0
BITMAP
000700
001980
003180
006180
006180
00E100
00E300
00C600
00CC00
01D000
018000
010000
7FC000
C7F880
783F00
ENDCHAR

STARTCHAR char77
ENCODING 77
SWIDTH 7 0
DWIDTH 22 0
BBX 24 15 -1 0
BITMAP
000306
00058E
00099C
0013AC
00335C
003758
0066B8
006730
00CF70
00CE70
009E60
011CE0
8318E0
8638C7
780078
ENDCHAR

STARTCHAR char78
ENCODING 78
SWIDTH 33 0
DWIDTH 18 0
BBX 21 15 -1 0
BITMAP
01E030
0610E0
081320
181C40
3018C0
603180
407380
C0B380
C0F300
C16700
C26700
C2E600
06C600
078218
0701E0
ENDCHAR

STARTCHAR char79
ENCODING 79
SWIDTH 16 0
DWIDTH 14 0
BBX 13 15 0 0
BITMAP
00E0
0510
0A18
1218
3418
6418
6438
E038
C038
C030
C070
C060
C0C0
6180
3F00
ENDCHAR

STARTCHAR char80
ENCODING 80
SWIDTH 38 0
DWIDTH 19 0
BBX 19 19 -1 -4
BITMAP
00FE00
030980
0C18C0
383040
703060
606060
C0E060
C0E060
C0C0E0
C1C0C0
4181C0
418180
038300
030E00
07F800
070000
060000
0E0000
080000
ENDCHAR

STARTCHAR char81
ENCODING 81
SWIDTH 12 0
DWIDTH 13 0
BBX 15 19 -1 -4
BITMAP
03C0
0C30
1810
3818
7018
7018
F038
E038
E030
6070
6060
20C0
0080
7F00
FFC2
00F2
007E
001C
0008
ENDCHAR

STARTCHAR char82
ENCODING 82
SWIDTH 29 0
DWIDTH 17 0
BBX 19 15 -1 0
BITMAP
007E00
038980
0410C0
1820C0
3060C0
60E1C0
60C180
C1C380
C1C700
C18C00
C1B000
43E000
437000
0338E0
041F00
ENDCHAR

STARTCHAR char83
ENCODING 83
SWIDTH 8 0
DWIDTH 12 0
BBX 12 15 0 0
BITMAP
01E0
0330
0630
0660
0740
0700
0380
0380
0180
1FC0
60F0
C0C0
C1C0
C180
7E00
ENDCHAR

STARTCHAR char84
ENCODING 84
SWIDTH 16 0
DWIDTH 14 0
BBX 17 15 -1 0
BITMAP
003F80
0FFF80
100200
200400
400C00
C00C00
C01C00
C01800
C01800
473800
08F800
103000
307000
30E000
1F8000
ENDCHAR

STARTCHAR char85
ENCODING 85
SWIDTH 33 0
DWIDTH 18 0
BBX 21 15 -1 0
BITMAP
00F000
0318F0
0C38E0
1038E0
3071C0
6073C0
40E380
C0C780
C1C700
C18F00
C39700
431600
472600
064438
0387C0
ENDCHAR

STARTCHAR char86
ENCODING 86
SWIDTH 38 0
DWIDTH 19 0
BBX 19 15 -1 0
BITMAP
003C40
01C440
0E0860
181060
303060
606060
C0E060
C0C040
C0C0C0
C1C080
C18080
418100
418300
008600
007800
ENDCHAR

STARTCHAR char87
ENCODING 87
SWIDTH 7 0
DWIDTH 22 0
BBX 23 15 -1 0
BITMAP
0FE088
3FF184
402306
404306
80C706
01CA06
018A0E
01960C
03A40C
032418
034C18
074C30
068C20
070C40
060780
ENDCHAR

STARTCHAR char88
ENCODING 88
SWIDTH 33 0
DWIDTH 18 0
BBX 20 15 -1 0
BITMAP
01F070
061880
181900
301A00
601C00
601800
C03020
C1FE30
C02030
406030
00E020
016060
0260C0
446180
781E00
ENDCHAR

STARTCHAR char89
ENCODING 89
SWIDTH 33 0
DWIDTH 18 0
BBX 20 19 -1 -4
BITMAP
01C000
0E6060
1860E0
3061E0
60C1C0
C1C3C0
C183C0
C38580
C78B80
C70B00
471300
2F2700
0647E0
07CE00
06FC00
019800
033000
066000
078000
ENDCHAR

STARTCHAR char90
ENCODING 90
SWIDTH 33 0
DWIDTH 18 0
BBX 20 15 -1 0
BITMAP
007C00
019FA0
020040
0460C0
086380
086700
184700
187F80
189C00
189800
093000
066000
00C000
7FC030
F8FFC0
ENDCHAR

STARTCHAR char91
ENCODING 91
SWIDTH 34 0
DWIDTH 8 0
BBX 11 19 -2 -4
BITMAP
01E0
0380
0300
0300
0700
0600
0E00
0E00
0C00
1C00
1800
1800
3800
3000
3000
7000
6000
6000
7800
ENDCHAR

STARTCHAR char92
ENCODING 92
SWIDTH 25 0
DWIDTH 6 0
BBX 6 15 0 0
BITMAP
80
C0
40
40
60
20
20
30
10
10
18
18
08
0C
0C
ENDCHAR

STARTCHAR char93
ENCODING 93
SWIDTH 34 0
DWIDTH 8 0
BBX 11 19 -4 -4
BITMAP
01E0
00E0
00C0
00C0
01C0
0180
0180
0380
0300
0700
0600
0600
0E00
0C00
0C00
1C00
1800
1800
7800
ENDCHAR

STARTCHAR char94
ENCODING 94
SWIDTH 0 0
DWIDTH 0 0
BBX 6 3 -1 16
BITMAP
18
38
48
ENDCHAR

STARTCHAR char95
ENCODING 95
SWIDTH 8 0
DWIDTH 12 0
BBX 12 1 0 -3
BITMAP
FFF0
ENDCHAR

STARTCHAR char96
ENCODING 96
SWIDTH 0 0
DWIDTH 0 0
BBX 5 4 -1 10
BITMAP
E0
60
30
18
ENDCHAR

STARTCHAR char97
ENCODING 97
SWIDTH 43 0
DWIDTH 10 0
BBX 11 8 0 0
BITMAP
1F00
2380
6700
6600
C600
CC00
CC60
F780
ENDCHAR

STARTCHAR char98
ENCODING 98
SWIDTH 38 0
DWIDTH 9 0
BBX 9 14 0 0
BITMAP
0C00
1C00
1800
1800
3800
3600
3F00
7F00
6700
6600
C200
C580
C800
7000
ENDCHAR

STARTCHAR char99
ENCODING 99
SWIDTH 34 0
DWIDTH 8 0
BBX 8 8 0 0
BITMAP
1F
33
66
6C
C8
C0
C3
7C
ENDCHAR

STARTCHAR char100
ENCODING 100
SWIDTH 43 0
DWIDTH 10 0
BBX 11 15 0 0
BITMAP
0020
0060
00C0
00C0
00C0
0080
0180
1F80
2300
6300
6300
C200
C600
CE60
7780
ENDCHAR

STARTCHAR char101
ENCODING 101
SWIDTH 30 0
DWIDTH 7 0
BBX 8 8 0 0
BITMAP
1E
36
6C
68
F0
C0
C3
FC
ENDCHAR

STARTCHAR char102
ENCODING 102
SWIDTH 30 0
DWIDTH 7 0
BBX 9 19 -1 -4
BITMAP
0080
0180
0280
0680
0680
0D00
0D00
0D00
1E00
7C00
D800
D800
F000
F300
3C00
7000
6000
E000
6000
ENDCHAR

STARTCHAR char103
ENCODING 103
SWIDTH 43 0
DWIDTH 10 0
BBX 10 12 0 -4
BITMAP
1F00
2380
6300
6700
C700
C600
CE40
7D80
0E00
3800
5800
6000
ENDCHAR

STARTCHAR char104
ENCODING 104
SWIDTH 3 0
DWIDTH 11 0
BBX 11 14 0 0
BITMAP
0C00
1C00
1800
1800
3800
3000
3380
7580
6B80
6B00
F300
D600
E620
E3C0
ENDCHAR

STARTCHAR char105
ENCODING 105
SWIDTH 21 0
DWIDTH 5 0
BBX 6 13 0 0
BITMAP
18
18
18
00
00
20
20
60
40
C0
C0
CC
F0
ENDCHAR

STARTCHAR char106
ENCODING 106
SWIDTH 30 0
DWIDTH 7 0
BBX 8 17 -1 -4
BITMAP
03
03
03
00
00
0E
3C
4C
9C
18
7F
B9
B0
F0
A0
A0
60
ENDCHAR

STARTCHAR char107
ENCODING 107
SWIDTH 43 0
DWIDTH 10 0
BBX 11 15 0 0
BITMAP
0400
1C00
1800
1800
3800
3000
3000
7780
6D80
6B00
FE00
D800
EC00
EE60
C780
ENDCHAR

STARTCHAR char108
ENCODING 108
SWIDTH 21 0
DWIDTH 5 0
BBX 6 15 0 0
BITMAP
04
0C
1C
18
18
38
30
30
70
60
60
E0
C0
CC
70
ENDCHAR

STARTCHAR char109
ENCODING 109
SWIDTH 20 0
DWIDTH 15 0
BBX 16 8 -1 0
BITMAP
23DE
35E6
75EE
7BCC
6BCC
F758
E699
E71E
ENDCHAR

STARTCHAR char110
ENCODING 110
SWIDTH 3 0
DWIDTH 11 0
BBX 12 8 0 0
BITMAP
3380
7580
6B80
6B00
F700
E600
E670
C380
ENDCHAR

STARTCHAR char111
ENCODING 111
SWIDTH 38 0
DWIDTH 9 0
BBX 9 10 0 0
BITMAP
0400
0E00
1E00
2E00
6E00
4600
C780
C400
CC00
7800
ENDCHAR

STARTCHAR char112
ENCODING 112
SWIDTH 3 0
DWIDTH 11 0
BBX 12 11 -1 -3
BITMAP
0F80
1CC0
2CC0
58C0
5980
3980
FB10
F620
79C0
6000
E000
ENDCHAR

STARTCHAR char113
ENCODING 113
SWIDTH 43 0
DWIDTH 10 0
BBX 10 12 0 -4
BITMAP
1F80
2380
6300
6600
C600
C400
CC40
F980
0A00
1A00
1C00
1800
ENDCHAR

STARTCHAR char114
ENCODING 114
SWIDTH 34 0
DWIDTH 8 0
BBX 8 8 0 0
BITMAP
36
7C
68
68
F4
E3
E0
E0
ENDCHAR

STARTCHAR char115
ENCODING 115
SWIDTH 30 0
DWIDTH 7 0
BBX 7 8 0 0
BITMAP
1C
38
30
38
38
D8
92
FC
ENDCHAR

STARTCHAR char116
ENCODING 116
SWIDTH 25 0
DWIDTH 6 0
BBX 7 12 0 0
BITMAP
18
18
18
30
78
70
60
60
C0
C0
CE
70
ENDCHAR

STARTCHAR char117
ENCODING 117
SWIDTH 43 0
DWIDTH 10 0
BBX 11 8 0 0
BITMAP
2100
7380
6300
6300
C600
C600
C660
7F80
ENDCHAR

STARTCHAR char118
ENCODING 118
SWIDTH 43 0
DWIDTH 10 0
BBX 10 9 0 0
BITMAP
0700
3D80
2D80
6580
6780
C300
C6C0
C400
7800
ENDCHAR

STARTCHAR char119
ENCODING 119
SWIDTH 20 0
DWIDTH 15 0
BBX 16 9 -1 0
BITMAP
0018
39FC
31B4
719C
739C
E308
E317
C720
7BC0
ENDCHAR

STARTCHAR char120
ENCODING 120
SWIDTH 43 0
DWIDTH 10 0
BBX 12 9 -1 0
BITMAP
0040
7DE0
4760
07C0
0E00
3C00
4C00
DC70
F780
ENDCHAR

STARTCHAR char121
ENCODING 121
SWIDTH 43 0
DWIDTH 10 0
BBX 10 12 0 -4
BITMAP
2300
3380
6300
6700
C600
C600
DE40
6F80
0C00
7800
5800
6000
ENDCHAR

STARTCHAR char122
ENCODING 122
SWIDTH 34 0
DWIDTH 8 0
BBX 9 9 0 0
BITMAP
3900
7E00
4600
5C00
7800
E000
C000
B980
DE00
ENDCHAR

STARTCHAR char123
ENCODING 123
SWIDTH 30 0
DWIDTH 7 0
BBX 5 19 1 -4
BITMAP
38
60
60
60
60
60
60
60
40
80
40
60
60
60
60
60
60
70
38
ENDCHAR

STARTCHAR char124
ENCODING 124
SWIDTH 21 0
DWIDTH 5 0
BBX 2 15 2 0
BITMAP
C0
C0
C0
C0
C0
C0
C0
C0
C0
C0
C0
C0
C0
C0
C0
ENDCHAR

STARTCHAR char125
ENCODING 125
SWIDTH 30 0
DWIDTH 7 0
BBX 5 19 1 -4
BITMAP
C0
20
20
20
20
20
20
30
10
08
10
30
30
30
30
30
30
70
E0
ENDCHAR

STARTCHAR char126
ENCODING 126
SWIDTH 0 0
DWIDTH 0 0
BBX 8 3 -1 15
BITMAP
79
FE
5C
ENDCHAR

STARTCHAR char128
ENCODING 128
SWIDTH 12 0
DWIDTH 13 0
BBX 16 15 -3 0
BITMAP
007C
01C2
2382
1F01
CF80
3F80
1F70
1F08
18E0
1810
1800
1800
0800
0C07
03F8
ENDCHAR

STARTCHAR char130
ENCODING 130
SWIDTH 17 0
DWIDTH 4 0
BBX 4 6 0 -3
BITMAP
20
F0
30
20
40
80
ENDCHAR

STARTCHAR char131
ENCODING 131
SWIDTH 0 0
DWIDTH 0 0
BBX 6 3 -1 16
BITMAP
18
38
48
ENDCHAR

STARTCHAR char132
ENCODING 132
SWIDTH 34 0
DWIDTH 8 0
BBX 7 6 0 -3
BITMAP
12
FE
36
64
CC
88
ENDCHAR

STARTCHAR char133
ENCODING 133
SWIDTH 3 0
DWIDTH 21 0
BBX 16 2 2 0
BITMAP
C183
C183
ENDCHAR

STARTCHAR char134
ENCODING 134
SWIDTH 38 0
DWIDTH 9 0
BBX 8 18 1 -3
BITMAP
06
06
04
04
77
6B
18
38
38
30
30
60
60
40
40
80
80
80
ENDCHAR

STARTCHAR char136
ENCODING 136
SWIDTH 0 0
DWIDTH 0 0
BBX 5 3 -1 11
BITMAP
30
70
58
ENDCHAR

STARTCHAR char139
ENCODING 139
SWIDTH 30 0
DWIDTH 7 0
BBX 3 7 2 2
BITMAP
20
60
C0
80
E0
60
20
ENDCHAR

STARTCHAR char140
ENCODING 140
SWIDTH 3 0
DWIDTH 21 0
BBX 22 15 -1 0
BITMAP
00E070
0510C8
0A11C8
1A1998
3219B0
721920
621900
E01E00
E03C00
C03808
C0300C
C0600C
C0E018
60E030
3F1FC0
ENDCHAR

STARTCHAR char145
ENCODING 145
SWIDTH 21 0
DWIDTH 5 0
BBX 4 6 2 9
BITMAP
20
20
40
C0
E0
C0
ENDCHAR

STARTCHAR char146
ENCODING 146
SWIDTH 21 0
DWIDTH 5 0
BBX 4 6 2 9
BITMAP
20
70
30
20
40
80
ENDCHAR

STARTCHAR char147
ENCODING 147
SWIDTH 34 0
DWIDTH 8 0
BBX 7 6 2 9
BITMAP
22
22
4C
D8
FC
D8
ENDCHAR

STARTCHAR char148
ENCODING 148
SWIDTH 34 0
DWIDTH 8 0
BBX 7 6 2 9
BITMAP
22
76
36
24
44
88
ENDCHAR

STARTCHAR char149
ENCODING 149
SWIDTH 30 0
DWIDTH 7 0
BBX 5 5 1 5
BITMAP
70
F8
F8
F8
70
ENDCHAR

STARTCHAR char150
ENCODING 150
SWIDTH 3 0
DWIDTH 11 0
BBX 11 1 -1 4
BITMAP
7FE0
ENDCHAR

STARTCHAR char151
ENCODING 151
SWIDTH 12 0
DWIDTH 13 0
BBX 14 1 0 6
BITMAP
FFFC
ENDCHAR

STARTCHAR char152
ENCODING 152
SWIDTH 0 0
DWIDTH 0 0
BBX 7 2 -1 11
BITMAP
FA
BC
ENDCHAR

STARTCHAR char153
ENCODING 153
SWIDTH 29 0
DWIDTH 17 0
BBX 17 8 0 6
BITMAP
FF8300
B68300
B6C500
30C500
30EB00
30AB00
30B300
799780
ENDCHAR

STARTCHAR char155
ENCODING 155
SWIDTH 30 0
DWIDTH 7 0
BBX 3 7 2 2
BITMAP
80
C0
60
20
E0
80
80
ENDCHAR

STARTCHAR char156
ENCODING 156
SWIDTH 8 0
DWIDTH 12 0
BBX 13 8 -1 0
BITMAP
1FF8
3198
73B0
6360
E3C0
C700
C718
7BE0
ENDCHAR

STARTCHAR char159
ENCODING 159
SWIDTH 33 0
DWIDTH 18 0
BBX 20 22 -1 -4
BITMAP
006C00
006C00
000000
01C000
066060
1860E0
3061E0
60C1C0
C1C3C0
C185C0
C38780
C78B80
C71300
471700
2F2700
0647E0
07CE00
06FC00
019800
033000
066000
078000
ENDCHAR

STARTCHAR char160
ENCODING 160
SWIDTH 21 0
DWIDTH 5 0
BBX 0 0 0 0
BITMAP
ENDCHAR

STARTCHAR char161
ENCODING 161
SWIDTH 30 0
DWIDTH 7 0
BBX 6 14 0 0
BITMAP
0C
0C
0C
00
08
08
10
10
30
30
60
60
E0
E0
ENDCHAR

STARTCHAR char162
ENCODING 162
SWIDTH 34 0
DWIDTH 8 0
BBX 8 13 0 -2
BITMAP
04
04
04
0B
3B
6E
6C
D8
D0
D3
7C
20
20
ENDCHAR

STARTCHAR char163
ENCODING 163
SWIDTH 20 0
DWIDTH 15 0
BBX 15 15 -1 0
BITMAP
0070
008C
0106
0306
0304
0300
0300
1FF0
0100
0180
0100
0100
7FD8
EFF0
71E0
ENDCHAR

STARTCHAR char164
ENCODING 164
SWIDTH 0 0
DWIDTH 0 0
BBX 5 3 1 16
BITMAP
38
70
60
ENDCHAR

STARTCHAR char165
ENCODING 165
SWIDTH 0 0
DWIDTH 0 0
BBX 6 4 0 15
BITMAP
88
58
70
60
ENDCHAR

STARTCHAR char167
ENCODING 167
SWIDTH 43 0
DWIDTH 10 0
BBX 13 19 -3 -5
BITMAP
0070
0198
0118
0318
0380
0380
05C0
09C0
08E0
18E0
1C60
0C40
0E80
0700
0700
0300
C300
C200
3C00
ENDCHAR

STARTCHAR char168
ENCODING 168
SWIDTH 0 0
DWIDTH 0 0
BBX 6 2 -1 11
BITMAP
CC
CC
ENDCHAR

STARTCHAR char169
ENCODING 169
SWIDTH 20 0
DWIDTH 15 0
BBX 15 14 0 0
BITMAP
0780
0860
1010
23C8
4C44
CC46
D806
D806
D806
4804
4C44
2388
1030
0FC0
ENDCHAR

STARTCHAR char170
ENCODING 170
SWIDTH 0 0
DWIDTH 0 0
BBX 5 2 0 16
BITMAP
D8
D8
ENDCHAR

STARTCHAR char171
ENCODING 171
SWIDTH 38 0
DWIDTH 9 0
BBX 8 5 0 2
BITMAP
33
66
CC
6E
77
ENDCHAR

STARTCHAR char172
ENCODING 172
SWIDTH 16 0
DWIDTH 14 0
BBX 14 6 0 0
BITMAP
FFFC
000C
000C
000C
000C
000C
ENDCHAR

STARTCHAR char174
ENCODING 174
SWIDTH 20 0
DWIDTH 15 0
BBX 15 13 0 0
BITMAP
0FC0
1030
2FC8
4664
C664
C4E6
C706
C786
C6C4
4E64
2008
1030
0FC0
ENDCHAR

STARTCHAR char176
ENCODING 176
SWIDTH 21 0
DWIDTH 5 0
BBX 7 7 1 7
BITMAP
38
44
C6
C6
46
24
18
ENDCHAR

STARTCHAR char177
ENCODING 177
SWIDTH 3 0
DWIDTH 11 0
BBX 10 13 0 0
BITMAP
0C00
0C00
0C00
0C00
0C00
FFC0
0C00
0C00
0C00
0C00
0C00
0000
FFC0
ENDCHAR

STARTCHAR char180
ENCODING 180
SWIDTH 0 0
DWIDTH 0 0
BBX 5 4 0 10
BITMAP
38
30
60
C0
ENDCHAR

STARTCHAR char182
ENCODING 182
SWIDTH 16 0
DWIDTH 14 0
BBX 9 18 2 -3
BITMAP
3F80
7980
F980
F980
F980
F980
F980
7980
1980
1980
1980
1980
1980
1980
1980
1980
1980
1980
ENDCHAR

STARTCHAR char183
ENCODING 183
SWIDTH 12 0
DWIDTH 3 0
BBX 2 2 2 5
BITMAP
C0
C0
ENDCHAR

STARTCHAR char184
ENCODING 184
SWIDTH 0 0
DWIDTH 0 0
BBX 4 4 -4 -4
BITMAP
30
30
60
80
ENDCHAR

STARTCHAR char186
ENCODING 186
SWIDTH 0 0
DWIDTH 0 0
BBX 8 3 -1 15
BITMAP
79
FE
5C
ENDCHAR

STARTCHAR char187
ENCODING 187
SWIDTH 38 0
DWIDTH 9 0
BBX 8 5 0 2
BITMAP
66
37
1B
36
CC
ENDCHAR

STARTCHAR char191
ENCODING 191
SWIDTH 38 0
DWIDTH 9 0
BBX 8 14 -1 0
BITMAP
03
03
03
0E
09
03
06
1E
3C
79
71
E2
C6
78
ENDCHAR

STARTCHAR char192
ENCODING 192
SWIDTH 38 0
DWIDTH 19 0
BBX 20 19 -1 0
BITMAP
007000
003800
000800
000000
000060
0001E0
000160
0002E0
0002E0
0004C0
0009C0
007FE0
1F8980
601380
601300
C02700
C04700
C18600
7E07C0
ENDCHAR

STARTCHAR char193
ENCODING 193
SWIDTH 38 0
DWIDTH 19 0
BBX 20 19 -1 0
BITMAP
000E00
000C00
001800
000000
000060
0001E0
000160
0002E0
0002E0
0004C0
0009C0
007FE0
1F8980
601380
601300
C02700
C04700
C18600
7E07C0
ENDCHAR

STARTCHAR char194
ENCODING 194
SWIDTH 38 0
DWIDTH 19 0
BBX 20 19 -1 0
BITMAP
001800
001800
002C00
000000
000060
0001E0
000160
0002E0
0002E0
0004C0
0009C0
007FE0
1F8980
601380
601300
C02700
C04700
C18600
7E07C0
ENDCHAR

STARTCHAR char195
ENCODING 195
SWIDTH 38 0
DWIDTH 19 0
BBX 20 18 -1 0
BITMAP
003900
007E00
004C00
000060
0001E0
000160
0002E0
0002E0
0004C0
0009C0
007FE0
1F8980
601380
601300
C02700
C04700
C18600
7E07C0
ENDCHAR

STARTCHAR char196
ENCODING 196
SWIDTH 38 0
DWIDTH 19 0
BBX 21 18 -1 0
BITMAP
0000D8
0000D8
000000
000060
0001E0
0001E0
0002E0
0002E0
0005C0
0009C0
007FC0
1F8980
601300
601300
C02700
C04600
C18600
7E07C0
ENDCHAR

STARTCHAR char197
ENCODING 197
SWIDTH 38 0
DWIDTH 19 0
BBX 21 19 -1 0
BITMAP
000070
000058
000078
000030
000060
0000A0
000120
000260
000260
0004C0
0009C0
007FE0
1F89C0
601380
601380
C02700
C04700
C18600
7E07C0
ENDCHAR

STARTCHAR char198
ENCODING 198
SWIDTH 7 0
DWIDTH 22 0
BBX 23 15 -1 0
BITMAP
00031E
000B36
000B76
001766
001766
003668
002640
007C40
1FCF80
308E04
609C06
C09806
C1180C
C61818
780FE0
ENDCHAR

STARTCHAR char199
ENCODING 199
SWIDTH 12 0
DWIDTH 13 0
BBX 13 19 0 -4
BITMAP
03E0
0E10
1C18
3818
7198
7218
EC30
E860
D0E0
D1C0
D300
CE00
4000
6030
17C0
1800
1800
3000
2000
ENDCHAR

STARTCHAR char200
ENCODING 200
SWIDTH 12 0
DWIDTH 13 0
BBX 13 19 0 0
BITMAP
0380
0380
0080
0000
01C0
03B0
0730
0730
0660
0680
0400
0C00
3000
6010
E018
C018
C030
C040
3F80
ENDCHAR

STARTCHAR char201
ENCODING 201
SWIDTH 12 0
DWIDTH 13 0
BBX 13 19 0 0
BITMAP
00F0
00E0
01C0
0000
01C0
03B0
0730
0730
0660
0680
0400
0C00
3000
6010
E018
C018
C030
C040
3F80
ENDCHAR

STARTCHAR char202
ENCODING 202
SWIDTH 12 0
DWIDTH 13 0
BBX 13 19 0 0
BITMAP
0180
01C0
0240
0000
01C0
03B0
0730
0730
0660
0680
0400
0C00
3000
6010
E018
C018
C030
C040
3F80
ENDCHAR

STARTCHAR char203
ENCODING 203
SWIDTH 12 0
DWIDTH 13 0
BBX 13 18 0 0
BITMAP
0360
0360
0000
00C0
01B0
0330
0730
0620
0640
0400
0C00
3000
6010
E018
C018
C030
C0C0
3F00
ENDCHAR

STARTCHAR char204
ENCODING 204
SWIDTH 12 0
DWIDTH 13 0
BBX 15 19 -1 0
BITMAP
01C0
00C0
0060
0000
03C0
0FFE
3004
200C
200C
001C
0018
0038
0038
1FB8
6070
C06C
C0E0
41C0
3F00
ENDCHAR

STARTCHAR char205
ENCODING 205
SWIDTH 12 0
DWIDTH 13 0
BBX 15 19 -1 0
BITMAP
0078
0070
00C0
0000
07F0
1FFE
1004
200C
200C
001C
0018
0038
0038
1FB8
6070
C06C
C0E0
41C0
3F00
ENDCHAR

STARTCHAR char206
ENCODING 206
SWIDTH 12 0
DWIDTH 13 0
BBX 15 19 -1 0
BITMAP
00E0
00E0
0120
0000
07F0
1FFE
1004
200C
200C
001C
0018
0038
0038
1FB8
6070
C06C
C0E0
41C0
3F00
ENDCHAR

STARTCHAR char207
ENCODING 207
SWIDTH 12 0
DWIDTH 13 0
BBX 15 18 -1 0
BITMAP
01B0
01B0
0000
03C0
0FFE
3004
200C
200C
001C
0018
0018
0038
1FB8
6070
C06C
C0C0
4180
3F00
ENDCHAR

STARTCHAR char209
ENCODING 209
SWIDTH 33 0
DWIDTH 18 0
BBX 21 18 -1 0
BITMAP
003900
007E00
004C00
01E030
0610E0
0C1320
181C40
3018C0
603180
607380
C0B380
C0F300
C17700
C26700
C2E600
06C600
078218
0701E0
ENDCHAR

STARTCHAR char210
ENCODING 210
SWIDTH 16 0
DWIDTH 14 0
BBX 13 19 0 0
BITMAP
0380
0180
00C0
0000
00E0
0510
0A18
1218
3418
6418
6438
E038
C038
C030
C070
C060
C0C0
6180
3F00
ENDCHAR

STARTCHAR char211
ENCODING 211
SWIDTH 16 0
DWIDTH 14 0
BBX 13 19 0 0
BITMAP
0070
0060
00C0
0000
00E0
0510
0A18
1218
3418
6418
6438
E038
C038
C030
C070
C060
C0C0
6180
3F00
ENDCHAR

STARTCHAR char212
ENCODING 212
SWIDTH 16 0
DWIDTH 14 0
BBX 13 19 0 0
BITMAP
00C0
01C0
0160
0000
00E0
0510
0A18
1218
3418
6418
6438
E038
C038
C030
C070
C060
C0C0
6180
3F00
ENDCHAR

STARTCHAR char213
ENCODING 213
SWIDTH 16 0
DWIDTH 14 0
BBX 13 19 0 0
BITMAP
01C8
03F8
02F0
0000
00E0
0510
0A18
1218
3418
6418
6418
E038
C038
C030
C070
C060
C0C0
6180
3F00
ENDCHAR

STARTCHAR char214
ENCODING 214
SWIDTH 16 0
DWIDTH 14 0
BBX 13 18 0 0
BITMAP
01B0
01B0
0000
00E0
0510
0A18
1218
3418
6418
6418
E018
C038
C030
C030
C060
C040
6080
3F00
ENDCHAR

STARTCHAR char216
ENCODING 216
SWIDTH 16 0
DWIDTH 14 0
BBX 13 16 0 -1
BITMAP
00E8
0510
0A18
1278
3458
6498
6538
E238
C438
C830
C870
D060
E0C0
6180
BF00
8000
ENDCHAR

STARTCHAR char217
ENCODING 217
SWIDTH 33 0
DWIDTH 18 0
BBX 21 19 -1 0
BITMAP
007000
003800
000800
000000
00F000
0318F0
0C38E0
1038E0
2071C0
6073C0
40E380
C0C780
C1C700
C18F00
C39700
431600
472600
064438
0387C0
ENDCHAR

STARTCHAR char218
ENCODING 218
SWIDTH 33 0
DWIDTH 18 0
BBX 21 19 -1 0
BITMAP
000E00
000C00
001800
000000
00F000
0318F0
0C38E0
1038E0
3071C0
6073C0
40E380
C0C780
C1C700
C18F00
C39700
431600
472600
064438
0387C0
ENDCHAR

STARTCHAR char219
ENCODING 219
SWIDTH 33 0
DWIDTH 18 0
BBX 21 19 -1 0
BITMAP
001800
001800
002C00
000000
00F000
0318F0
0C38E0
1038E0
3071C0
6073C0
40E380
C0C780
C1C700
C18F00
C39700
431600
472600
064438
0387C0
ENDCHAR

STARTCHAR char220
ENCODING 220
SWIDTH 33 0
DWIDTH 18 0
BBX 21 18 -1 0
BITMAP
0006C0
0006C0
000000
00F000
0318F0
0C38E0
1839E0
3071C0
6073C0
40E380
C0C780
C1C780
C18B00
C39700
431600
432600
024638
0387C0
ENDCHAR

STARTCHAR char223
ENCODING 223
SWIDTH 12 0
DWIDTH 13 0
BBX 14 19 -1 -4
BITMAP
00C0
0160
0260
0640
0CC0
0C80
1F00
1BC0
18C0
1860
3060
3FE0
7060
F080
7F00
6000
6000
4000
8000
ENDCHAR

STARTCHAR char224
ENCODING 224
SWIDTH 43 0
DWIDTH 10 0
BBX 11 14 0 0
BITMAP
0E00
0E00
0200
0100
0000
0000
1F00
2380
6700
6600
C600
CC00
CC60
F780
ENDCHAR

STARTCHAR char225
ENCODING 225
SWIDTH 43 0
DWIDTH 10 0
BBX 11 14 0 0
BITMAP
03C0
0380
0600
0C00
0000
0000
1F00
2380
6700
6600
C600
CC00
CC60
F780
ENDCHAR

STARTCHAR char226
ENCODING 226
SWIDTH 43 0
DWIDTH 10 0
BBX 11 14 0 0
BITMAP
0700
0700
0B00
0000
0000
0000
1F00
2380
6700
6600
C600
CC00
CC60
F780
ENDCHAR

STARTCHAR char227
ENCODING 227
SWIDTH 43 0
DWIDTH 10 0
BBX 11 14 0 0
BITMAP
0E40
0FC0
1380
0000
0000
0000
1F00
2380
6700
6600
C600
CC00
CC60
F780
ENDCHAR

STARTCHAR char228
ENCODING 228
SWIDTH 43 0
DWIDTH 10 0
BBX 11 13 0 0
BITMAP
0D80
0D80
0000
0000
0000
1F00
3300
6600
6600
C600
CC00
DC60
EF80
ENDCHAR

STARTCHAR char229
ENCODING 229
SWIDTH 43 0
DWIDTH 10 0
BBX 11 14 0 0
BITMAP
0700
0D80
0D80
0700
0000
0000
1F00
2380
6700
6F00
CE00
CE00
CC60
FF80
ENDCHAR

STARTCHAR char230
ENCODING 230
SWIDTH 8 0
DWIDTH 12 0
BBX 14 8 -1 0
BITMAP
1FB8
33D8
73B0
7360
E780
E600
C61C
7BE0
ENDCHAR

STARTCHAR char231
ENCODING 231
SWIDTH 34 0
DWIDTH 8 0
BBX 8 12 0 -4
BITMAP
1F
33
66
EC
C8
C0
C3
7C
60
60
C0
80
ENDCHAR

STARTCHAR char232
ENCODING 232
SWIDTH 30 0
DWIDTH 7 0
BBX 8 14 0 0
BITMAP
38
1C
0C
06
00
00
1E
36
6C
68
F0
C0
C3
FC
ENDCHAR

STARTCHAR char233
ENCODING 233
SWIDTH 30 0
DWIDTH 7 0
BBX 8 14 0 0
BITMAP
07
06
0C
18
00
00
1E
36
6C
68
F0
C0
C3
FC
ENDCHAR

STARTCHAR char234
ENCODING 234
SWIDTH 30 0
DWIDTH 7 0
BBX 8 14 0 0
BITMAP
0E
0E
16
00
00
00
1E
36
6C
68
F0
C0
C3
FC
ENDCHAR

STARTCHAR char235
ENCODING 235
SWIDTH 30 0
DWIDTH 7 0
BBX 8 13 0 0
BITMAP
1F
1F
00
00
00
1E
36
64
68
F0
C0
C3
7C
ENDCHAR

STARTCHAR char236
ENCODING 236
SWIDTH 21 0
DWIDTH 5 0
BBX 6 14 0 0
BITMAP
38
38
18
04
00
00
30
30
60
60
60
C0
CC
F0
ENDCHAR

STARTCHAR char237
ENCODING 237
SWIDTH 21 0
DWIDTH 5 0
BBX 8 14 0 0
BITMAP
0F
0E
18
10
00
00
30
30
60
60
60
C0
CC
F0
ENDCHAR

STARTCHAR char238
ENCODING 238
SWIDTH 21 0
DWIDTH 5 0
BBX 6 14 0 0
BITMAP
18
1C
2C
00
00
00
30
30
60
60
60
C0
CC
F0
ENDCHAR

STARTCHAR char239
ENCODING 239
SWIDTH 21 0
DWIDTH 5 0
BBX 7 13 0 0
BITMAP
36
36
00
00
00
30
30
60
60
60
C0
CC
F0
ENDCHAR

STARTCHAR char241
ENCODING 241
SWIDTH 3 0
DWIDTH 11 0
BBX 12 14 0 0
BITMAP
0720
0FE0
0BC0
0000
0000
0000
3380
7580
6B80
6B00
F700
E600
E670
C380
ENDCHAR

STARTCHAR char242
ENCODING 242
SWIDTH 38 0
DWIDTH 9 0
BBX 9 14 0 0
BITMAP
1C00
0E00
0600
0100
0400
0E00
1E00
2E00
6E00
4600
C780
C400
CC00
7800
ENDCHAR

STARTCHAR char243
ENCODING 243
SWIDTH 38 0
DWIDTH 9 0
BBX 9 14 0 0
BITMAP
0380
0300
0600
0C00
0400
0E00
1E00
2E00
6E00
4600
C780
C400
CC00
7800
ENDCHAR

STARTCHAR char244
ENCODING 244
SWIDTH 38 0
DWIDTH 9 0
BBX 9 14 0 0
BITMAP
0600
0E00
0B00
0000
0400
0E00
1E00
2E00
6E00
4600
C780
C400
CC00
7800
ENDCHAR

STARTCHAR char245
ENCODING 245
SWIDTH 38 0
DWIDTH 9 0
BBX 10 13 0 0
BITMAP
0F40
1780
0000
0400
0E00
1E00
2E00
6E00
4600
C780
C400
CC00
7800
ENDCHAR

STARTCHAR char246
ENCODING 246
SWIDTH 38 0
DWIDTH 9 0
BBX 9 13 0 0
BITMAP
1980
1980
0000
0400
0E00
2A00
6B00
6A00
C600
C780
C400
C800
7000
ENDCHAR

STARTCHAR char247
ENCODING 247
SWIDTH 3 0
DWIDTH 11 0
BBX 10 7 0 2
BITMAP
0C00
0C00
0000
FFC0
0000
0C00
0C00
ENDCHAR

STARTCHAR char248
ENCODING 248
SWIDTH 38 0
DWIDTH 9 0
BBX 9 13 0 -2
BITMAP
0200
0600
1E00
1E00
2B00
6E00
DE00
D780
F400
EC00
7800
4000
4000
ENDCHAR

STARTCHAR char249
ENCODING 249
SWIDTH 43 0
DWIDTH 10 0
BBX 11 14 0 0
BITMAP
0E00
0600
0300
0100
0000
0000
3180
7380
6300
6300
C600
C600
C660
7F80
ENDCHAR

STARTCHAR char250
ENCODING 250
SWIDTH 43 0
DWIDTH 10 0
BBX 11 14 0 0
BITMAP
01C0
0180
0300
0600
0000
0000
3180
6380
6300
6300
C600
C600
C660
7F80
ENDCHAR

STARTCHAR char251
ENCODING 251
SWIDTH 43 0
DWIDTH 10 0
BBX 11 14 0 0
BITMAP
0300
0700
0500
0000
0000
0000
3180
6380
6300
6300
C600
C600
C660
7F80
ENDCHAR

STARTCHAR char252
ENCODING 252
SWIDTH 43 0
DWIDTH 10 0
BBX 11 13 0 0
BITMAP
0D80
0D80
0000
0000
0000
3180
3100
6300
6200
E200
C600
C660
7F80
ENDCHAR

STARTCHAR char255
ENCODING 255
SWIDTH 43 0
DWIDTH 10 0
BBX 10 17 0 -4
BITMAP
0D80
0D80
0000
0000
0000
3300
2300
6300
6700
C600
C600
DEC0
6F80
1C00
7800
5000
6000
ENDCHAR
ENDFONT
